<?xml version="1.0" encoding="UTF-8" standalone="no"?>
<!-- Uploaded to: SVG Repo, www.svgrepo.com, Generator: SVG Repo Mixer Tools -->

<svg
   width="100.00002"
   height="95.494972"
   viewBox="0 0 3.0000005 2.8648492"
   fill="none"
   version="1.1"
   id="svg4"
   xmlns="http://www.w3.org/2000/svg"
   xmlns:svg="http://www.w3.org/2000/svg">
  <defs
     id="defs8" />
  <path
     d="m 1.4175492,0.09101145 c 0.025939,-0.079877 0.13896,-0.079877 0.1649001,0 l 0.2873876,0.8844631 c 0.011601,0.035722 0.044892,0.059907 0.08245,0.059907 h 0.9299779 c 0.083994,0 0.1189155,0.1074729 0.050961,0.1568389 L 2.1808582,1.7388459 c -0.030379,0.022073 -0.043107,0.061209 -0.031488,0.096928 l 0.2873699,0.8844617 c 0.025958,0.079884 -0.065458,0.1463121 -0.1334113,0.096946 L 1.5509605,2.2705495 c -0.030397,-0.022073 -0.071526,-0.022073 -0.1019227,0 L 0.69667018,2.8171823 C 0.62872288,2.8665483 0.53730128,2.80012 0.56325538,2.7202362 l 0.2873788,-0.8844613 c 0.011607,-0.035719 -0.00111,-0.074855 -0.031496,-0.096928 L 0.06676888,1.1922204 c -0.0679456,-0.049366 -0.0330251,-0.156839 0.0509613,-0.156839 H 1.0477098 c 0.03756,0 0.070848,-0.024185 0.082455,-0.059907 z"
     fill="#000000"
     id="path294"
     style="fill:#000000;stroke:#000000;stroke-width:0.0622074;stroke-dasharray:none;stroke-opacity:1;fill-opacity:1" />
  <path
     style="fill:none;fill-rule:evenodd;stroke:#000000;stroke-width:0.03px;stroke-linecap:butt;stroke-linejoin:miter;stroke-opacity:1"
     d="M 1.4979618,0.19778595 V 1.369188"
     id="path913" />
  <g
     id="g1286"
     transform="translate(-3.0769041,-2.6716566)">
    <path
       style="fill:none;fill-rule:evenodd;stroke:#000000;stroke-width:0.03px;stroke-linecap:butt;stroke-linejoin:miter;stroke-opacity:1"
       d="M 3.7563354,5.3609896 4.4448684,4.4133054"
       id="path913-5" />
    <path
       style="fill:none;fill-rule:evenodd;stroke:#000000;stroke-width:0.03px;stroke-linecap:butt;stroke-linejoin:miter;stroke-opacity:1"
       d="M 5.3933964,5.3609896 4.7048634,4.4133054"
       id="path913-5-9" />
  </g>
  <g
     id="g1257"
     transform="translate(-3.0860272,-2.6716566)">
    <path
       style="fill:none;fill-rule:evenodd;stroke:#000000;stroke-width:0.03px;stroke-linecap:butt;stroke-linejoin:miter;stroke-opacity:1"
       d="M 5.8862629,3.8236599 4.7721933,4.1856431"
       id="path913-7" />
    <path
       style="fill:none;fill-rule:evenodd;stroke:#000000;stroke-width:0.03px;stroke-linecap:butt;stroke-linejoin:miter;stroke-opacity:1"
       d="M 3.2817151,3.8236599 4.3957847,4.185643"
       id="path913-7-8" />
  </g>
</svg>
