<?xml version="1.0" encoding="UTF-8" standalone="no"?>
<svg
   width="16"
   height="16"
   fill="currentColor"
   class="bi bi-camera-reels"
   viewBox="0 0 16 16"
   version="1.1"
   id="svg8"
   sodipodi:docname="camera-reels-white.svg"
   inkscape:version="1.2.1 (9c6d41e410, 2022-07-14)"
   xmlns:inkscape="http://www.inkscape.org/namespaces/inkscape"
   xmlns:sodipodi="http://sodipodi.sourceforge.net/DTD/sodipodi-0.dtd"
   xmlns="http://www.w3.org/2000/svg"
   xmlns:svg="http://www.w3.org/2000/svg">
  <defs
     id="defs12" />
  <sodipodi:namedview
     id="namedview10"
     pagecolor="#ffffff"
     bordercolor="#666666"
     borderopacity="1.0"
     inkscape:showpageshadow="2"
     inkscape:pageopacity="0.0"
     inkscape:pagecheckerboard="0"
     inkscape:deskcolor="#d1d1d1"
     showgrid="false"
     inkscape:zoom="53.875"
     inkscape:cx="8"
     inkscape:cy="7.9907193"
     inkscape:window-width="1350"
     inkscape:window-height="1230"
     inkscape:window-x="2250"
     inkscape:window-y="674"
     inkscape:window-maximized="0"
     inkscape:current-layer="svg8" />
  <path
     d="M6 3a3 3 0 1 1-6 0 3 3 0 0 1 6 0M1 3a2 2 0 1 0 4 0 2 2 0 0 0-4 0"
     id="path2"
     style="fill:#ffffff;fill-opacity:1" />
  <path
     d="M9 6h.5a2 2 0 0 1 1.983 1.738l3.11-1.382A1 1 0 0 1 16 7.269v7.462a1 1 0 0 1-1.406.913l-3.111-1.382A2 2 0 0 1 9.5 16H2a2 2 0 0 1-2-2V8a2 2 0 0 1 2-2zm6 8.73V7.27l-3.5 1.555v4.35zM1 8v6a1 1 0 0 0 1 1h7.5a1 1 0 0 0 1-1V8a1 1 0 0 0-1-1H2a1 1 0 0 0-1 1"
     id="path4"
     style="fill:#ffffff;fill-opacity:1" />
  <path
     d="M9 6a3 3 0 1 0 0-6 3 3 0 0 0 0 6M7 3a2 2 0 1 1 4 0 2 2 0 0 1-4 0"
     id="path6"
     style="fill:#ffffff;fill-opacity:1" />
</svg>
